<?xml version="1.0" encoding="utf-8"?>
<!-- Generator: Adobe Illustrator 23.0.3, SVG Export Plug-In . SVG Version: 6.00 Build 0)  -->
<svg version="1.1" id="Layer_1" xmlns="http://www.w3.org/2000/svg" xmlns:xlink="http://www.w3.org/1999/xlink" x="0px" y="0px"
	 viewBox="0 0 721.2 362.8" style="enable-background:new 0 0 721.2 362.8;" xml:space="preserve">
<style type="text/css">
	.st0{fill:#22B27E;}
	.st1{fill:#182023;}
	.st2{fill:#00C28A;}
	.st3{fill:none;stroke:#182023;stroke-miterlimit:10;}
	.st4{fill:none;stroke:#00C28A;stroke-miterlimit:10;}
	.st5{fill:#A559A3;}
	.st6{fill:#E5C735;}
	.st7{fill:#FFFFFF;}
	.st8{fill:none;stroke:#DFE5E3;stroke-width:2;stroke-miterlimit:10;}
	.st9{fill:#DFE5E3;}
	.st10{fill-rule:evenodd;clip-rule:evenodd;fill:url(#Rectangle_2_);}
	.st11{fill-rule:evenodd;clip-rule:evenodd;fill:#FFFFFF;}
	.st12{fill-rule:evenodd;clip-rule:evenodd;fill:url(#Rectangle_3_);}
</style>
<polygon class="st1" points="109.6,163.9 109.6,152.6 125.8,152.6 125.8,141.5 109.6,141.5 109.6,131 127.2,131 127.2,119.5 
	93,119.5 93,175.5 127.2,175.5 127.2,163.9 "/>
<polygon class="st1" points="171.1,162.5 148.1,162.5 170.3,131.8 170.3,119.5 132.1,119.5 132.1,132.1 151.3,132.1 132.1,158.1 
	132.1,175.5 168.4,175.5 "/>
<path class="st2" d="M175.7,175.5v-55.9h35.5l-2.7,11.5h-16.3v12.2h15.2v11.5h-15.2v20.7H175.7z"/>
<path class="st2" d="M247.4,164.9c0.4,0.8,1.1,1.4,2,1.7l-3.2,10.2c-2.4-0.1-4.8-0.7-7.1-1.7c-1.9-0.9-3.5-2.4-4.5-4.3
	c-2.8,4.2-7.1,6.3-12.9,6.3c-3.8,0.2-7.5-1.2-10.2-3.8c-2.6-2.6-4-6.2-3.9-9.8c0-4.8,1.8-8.4,5.3-10.9c3.5-2.5,8.7-3.8,15.4-3.8h3.1
	v-1c0-2.1-0.4-3.6-1.3-4.3s-2.5-1.1-4.9-1.1c-1.7,0-3.3,0.2-4.9,0.6c-2.1,0.4-4.1,1-6.1,1.7l-3.4-10.1c5.4-2.1,11.1-3.3,17-3.4
	c6.7,0,11.6,1.3,14.7,3.9c3.1,2.6,4.6,6.6,4.6,11.9v14.8C246.8,162.7,247,163.8,247.4,164.9z M229.3,165.2c0.8-0.5,1.5-1.1,2.1-1.8
	V157h-1.7c-1.8-0.1-3.5,0.3-5,1.2c-1.1,0.9-1.7,2.3-1.6,3.7c0,1.1,0.3,2.1,1,2.9c0.6,0.7,1.6,1.1,2.6,1.1
	C227.6,165.9,228.5,165.6,229.3,165.2z"/>
<path class="st2" d="M289.9,136.7l-6.6,9.2c-2.1-1.8-4.8-2.9-7.5-3c-2.1-0.2-4.2,0.8-5.5,2.6c-1.2,1.7-1.8,4.7-1.8,8.8
	c0,4,0.6,6.7,1.8,8.2c1.3,1.5,3.3,2.3,5.3,2.2c1.2,0,2.3-0.2,3.5-0.6c1.4-0.6,2.7-1.3,4-2.1l6.8,9.7c-4.3,3.5-9.7,5.4-15.2,5.3
	c-4.2,0.1-8.4-0.9-12.1-2.9c-3.4-1.8-6.1-4.6-7.9-8c-1.9-3.7-2.8-7.7-2.7-11.8c-0.1-4.2,0.9-8.3,2.8-12c1.8-3.5,4.5-6.4,7.9-8.4
	c3.6-2.1,7.6-3.1,11.7-3C280.1,130.8,285.6,132.9,289.9,136.7z"/>
<rect x="292.6" y="132.6" class="st2" width="15.9" height="42.9"/>
<path class="st2" d="M318.2,173.4c-2.3-2.4-3.5-5.9-3.5-10.3v-47.4l15.9-1.6v48.3c0,1.4,0.6,2.2,1.9,2.2c0.6,0,1.1-0.1,1.7-0.3
	l4.8,11.3c-2.5,1-7.5,1.4-10.8,1.4C323.9,177.1,320.6,175.8,318.2,173.4z"/>
<rect x="340.9" y="132.6" class="st2" width="15.9" height="42.9"/>
<path class="st2" d="M390.9,173.4c-1.8,1.3-3.9,2.2-6.1,2.7c-2.2,0.6-4.5,1-6.8,1c-5.3,0-9.3-1.5-11.8-4.5s-3.8-7.3-3.8-13v-36.1
	l15.9-1.8v10.8h9.6l-1.6,10.8h-8v16.1c-0.1,1.4,0.2,2.8,0.9,4c0.6,0.8,1.5,1.2,2.5,1.2c1.4,0,2.8-0.4,4-1.1L390.9,173.4z"/>
<path class="st2" d="M422.3,175.4c-1.8,5.9-4.9,10.4-9.3,13.5s-10.2,4.7-17.4,4.9l-2.7-10.8c4.1-0.4,8.2-1.2,10.2-2.3
	c2.1-1.2,3.8-3,4.7-5.2h-5.5l-12.2-42.9H407l5.4,33.2l6.7-33.2h16.4L422.3,175.4z"/>
<circle class="st2" cx="300.5" cy="120.3" r="8.1"/>
<circle class="st2" cx="348.9" cy="120.3" r="8.1"/>
<polygon class="st1" points="62.4,283.4 62.4,278.6 69.3,278.6 69.3,273.8 62.4,273.8 62.4,269.3 69.9,269.3 69.9,264.4 55.3,264.4 
	55.3,288.3 69.9,288.3 69.9,283.4 "/>
<polygon class="st1" points="88.7,282.8 78.8,282.8 88.4,269.7 88.4,264.4 72,264.4 72,269.8 80.2,269.8 72,280.9 72,288.3 
	87.5,288.3 "/>
<path class="st2" d="M90.7,288.3v-23.9h15.2l-1.1,4.9h-7v5.2h6.5v4.9h-6.5v8.9H90.7z"/>
<path class="st2" d="M121.3,283.8c0.2,0.3,0.5,0.6,0.9,0.7l-1.4,4.4c-1,0-2.1-0.3-3-0.7c-0.8-0.4-1.5-1-1.9-1.8
	c-1.2,1.8-3,2.7-5.5,2.7c-1.6,0.1-3.2-0.5-4.4-1.6c-1.1-1.1-1.7-2.6-1.7-4.2c0-2,0.8-3.6,2.3-4.7c1.5-1.1,3.7-1.6,6.6-1.6h1.3v-0.4
	c0-0.9-0.2-1.5-0.5-1.9s-1.1-0.5-2.1-0.5c-0.7,0-1.4,0.1-2.1,0.3c-0.9,0.2-1.8,0.4-2.6,0.7l-1.5-4.3c2.3-0.9,4.8-1.4,7.2-1.5
	c2.9,0,5,0.6,6.3,1.7s2,2.8,2,5.1v6.3C121,282.9,121.1,283.4,121.3,283.8z M113.6,283.9c0.3-0.2,0.6-0.5,0.9-0.8v-2.7h-0.7
	c-0.7-0.1-1.5,0.1-2.1,0.5c-0.5,0.4-0.7,1-0.7,1.6c0,0.5,0.1,0.9,0.4,1.3c0.3,0.3,0.7,0.5,1.1,0.5
	C112.8,284.2,113.2,284.1,113.6,283.9z"/>
<path class="st2" d="M139.5,271.7l-2.8,3.9c-0.9-0.8-2-1.2-3.2-1.3c-0.9-0.1-1.8,0.3-2.3,1.1c-0.5,0.7-0.8,2-0.8,3.8
	c0,1.7,0.3,2.9,0.8,3.5c0.6,0.7,1.4,1,2.2,0.9c0.5,0,1-0.1,1.5-0.3c0.6-0.2,1.2-0.6,1.7-0.9l2.9,4.2c-1.8,1.5-4.1,2.3-6.5,2.3
	c-1.8,0-3.6-0.4-5.2-1.2c-1.4-0.8-2.6-2-3.4-3.4c-0.8-1.6-1.2-3.3-1.2-5.1c0-1.8,0.4-3.5,1.2-5.1c0.8-1.5,1.9-2.7,3.4-3.6
	c1.5-0.9,3.3-1.3,5-1.3C135.3,269.2,137.6,270.1,139.5,271.7z"/>
<rect x="140.6" y="270" class="st2" width="6.8" height="18.3"/>
<path class="st2" d="M151.6,287.5c-1-1-1.5-2.5-1.5-4.4v-20.3l6.8-0.7v20.7c0,0.6,0.3,0.9,0.8,0.9c0.2,0,0.5,0,0.7-0.1l2.1,4.8
	c-1.1,0.4-3.2,0.6-4.6,0.6C154,289,152.6,288.5,151.6,287.5z"/>
<rect x="161.3" y="270" class="st2" width="6.8" height="18.3"/>
<path class="st2" d="M182.6,287.4c-0.8,0.5-1.7,0.9-2.6,1.2c-0.9,0.3-1.9,0.4-2.9,0.4c-2.3,0-4-0.7-5-1.9c-1.1-1.3-1.6-3.1-1.6-5.6
	v-15.4l6.8-0.8v4.6h4.1l-0.7,4.6h-3.4v6.9c-0.1,0.6,0.1,1.2,0.4,1.7c0.3,0.3,0.7,0.5,1.1,0.5c0.6,0,1.2-0.2,1.7-0.5L182.6,287.4z"/>
<path class="st2" d="M196,288.3c-0.8,2.5-2.1,4.5-4,5.8s-4.4,2-7.4,2.1l-1.1-4.6c1.8-0.2,3.5-0.5,4.4-1c0.9-0.5,1.6-1.3,2-2.2h-2.3
	l-5.2-18.4h7.2l2.3,14.2l2.9-14.2h7L196,288.3z"/>
<circle class="st2" cx="144" cy="264.8" r="3.5"/>
<circle class="st2" cx="164.7" cy="264.8" r="3.5"/>
<rect x="55.8" y="75" class="st8" width="416.5" height="155.6"/>
<rect x="92.5" y="111.2" class="st8" width="343.5" height="83.1"/>
<g>
	<path class="st9" d="M263.6,86.2L263.6,86.2l3.9-10.7h8.3l-7.3,17.7l7.7,17.6h-8.3l-4-10.5h-0.1l-4.7,10.5h-7.9l7.9-17.6l-7.4-17.7
		h8.2L263.6,86.2z"/>
</g>
<g>
	<path class="st9" d="M81.2,147.5L81.2,147.5l10.9,3.9v8.4l-17.9-7.4l-17.8,7.8v-8.4l10.7-4v-0.1l-10.7-4.8v-8l17.8,8l17.9-7.5v8.3
		L81.2,147.5z"/>
</g>
<g>
	<path class="st9" d="M461.4,147.5L461.4,147.5l10.9,3.9v8.4l-17.9-7.4l-17.8,7.8v-8.4l10.7-4v-0.1l-10.7-4.8v-8l17.8,8l17.9-7.5
		v8.3L461.4,147.5z"/>
</g>
<g>
	<path class="st9" d="M525.4,156.8L525.4,156.8l10.9,3.9v8.4l-17.9-7.4l-17.8,7.8v-8.4l10.7-4v-0.1l-10.7-4.8v-8l17.8,8l17.9-7.5
		v8.3L525.4,156.8z"/>
</g>
<g>
	<path class="st9" d="M654.7,156.8L654.7,156.8l10.9,3.9v8.4l-17.9-7.4l-17.8,7.8v-8.4l10.7-4v-0.1l-10.7-4.8v-8l17.8,8l17.9-7.5
		v8.3L654.7,156.8z"/>
</g>
<g>
	<path class="st9" d="M583.3,227.7L583.3,227.7l-3.9,10.9H571l7.4-17.9l-7.8-17.8h8.4l4,10.7h0.1l4.8-10.7h8l-8,17.8l7.5,17.9h-8.3
		L583.3,227.7z"/>
</g>
<g>
	<path class="st9" d="M583.3,99.4L583.3,99.4l-3.9,10.9H571l7.4-17.9l-7.8-17.8h8.4l4,10.7h0.1l4.8-10.7h8l-8,17.8l7.5,17.9h-8.3
		L583.3,99.4z"/>
</g>
<g>
	<path class="st9" d="M263.6,205.4L263.6,205.4l3.9-10.7h8.3l-7.3,17.7l7.7,17.6h-8.3l-4-10.5h-0.1L259,230h-7.9l7.9-17.6l-7.4-17.7
		h8.2L263.6,205.4z"/>
</g>
<g id="Style-Guide">
	<g transform="translate(-1614.000000, -784.000000)">
		<g id="favicon" transform="translate(1614.000000, 784.000000)">
			<g id="Group">
				
					<linearGradient id="Rectangle_2_" gradientUnits="userSpaceOnUse" x1="-998.4509" y1="-351.2285" x2="-999.1328" y2="-350.0777" gradientTransform="matrix(80 0 0 -80 80487.0625 -27894.5879)">
					<stop  offset="0" style="stop-color:#182023"/>
					<stop  offset="0.4402" style="stop-color:#0B7559"/>
					<stop  offset="1" style="stop-color:#00C28A"/>
				</linearGradient>
				<path id="Rectangle" class="st10" d="M542.8,110.5h80.6c3.2,0,5.8,2.6,5.8,5.8v80.6c0,3.2-2.6,5.8-5.8,5.8h-80.6
					c-3.2,0-5.8-2.6-5.8-5.8v-80.6C537,113.1,539.6,110.5,542.8,110.5z"/>
				<g id="Group-2" transform="translate(9.843750, 18.437500)">
					<polygon id="Path" class="st11" points="553.5,152.7 553.5,142.7 568.2,142.7 568.2,132.8 553.5,132.8 553.5,123.5 
						569.4,123.5 569.4,113.3 538.5,113.3 538.5,162.9 569.4,162.9 569.4,152.7 					"/>
					<polygon class="st11" points="607.9,151.5 587.4,151.5 607.3,124.2 607.3,113.3 573.2,113.3 573.2,124.4 590.3,124.4 
						573.2,147.6 573.2,162.9 605.6,162.9 					"/>
				</g>
			</g>
		</g>
	</g>
</g>
<g id="Style-Guide_1_">
	<g transform="translate(-1614.000000, -784.000000)">
		<g id="favicon_1_" transform="translate(1614.000000, 784.000000)">
			<g id="Group_1_">
				
					<linearGradient id="Rectangle_3_" gradientUnits="userSpaceOnUse" x1="-999.4787" y1="-352.3987" x2="-999.7423" y2="-351.9539" gradientTransform="matrix(80 0 0 -80 80487.0625 -27894.5879)">
					<stop  offset="0" style="stop-color:#182023"/>
					<stop  offset="0.4402" style="stop-color:#0B7559"/>
					<stop  offset="1" style="stop-color:#00C28A"/>
				</linearGradient>
				<path id="Rectangle_1_" class="st12" d="M502.4,261.3h31.1c1.2,0,2.2,1,2.2,2.2v31.1c0,1.2-1,2.2-2.2,2.2h-31.1
					c-1.2,0-2.2-1-2.2-2.2v-31.1C500.2,262.3,501.2,261.3,502.4,261.3z"/>
				<g id="Group-2_1_" transform="translate(9.843750, 18.437500)">
					<polygon id="Path_1_" class="st11" points="500.5,266.3 500.5,262.4 506.2,262.4 506.2,258.6 500.5,258.6 500.5,255 506.7,255 
						506.7,251.1 494.7,251.1 494.7,270.3 506.7,270.3 506.7,266.3 					"/>
					<polygon class="st11" points="521.5,265.8 513.6,265.8 521.3,255.3 521.3,251.1 508.1,251.1 508.1,255.4 514.7,255.4 
						508.1,264.3 508.1,270.3 520.6,270.3 					"/>
				</g>
			</g>
		</g>
	</g>
</g>
<rect x="536.4" y="110.2" class="st8" width="92.9" height="92"/>
<rect x="500.3" y="74.1" class="st8" width="165.6" height="164.6"/>
<g>
	<path class="st9" d="M213.2,297.1h-7.6v-2h5v-32.9h-5v-2h7.5V297.1z"/>
</g>
<g>
	<path class="st9" d="M551.8,297.5h-7.6v-2h5v-32.9h-5v-2h7.5V297.5z"/>
</g>
<g>
	<path d="M222.6,278.8c0,2-0.7,3.1-1.9,3.1c-1.2,0-1.9-1.1-1.9-3.1s0.6-3.1,1.9-3.1S222.6,276.8,222.6,278.8z M219.3,278.8
		c0,1.8,0.5,2.7,1.3,2.7s1.3-0.8,1.3-2.7c0-1.8-0.5-2.7-1.3-2.7C219.8,276.1,219.3,276.9,219.3,278.8z"/>
	<path d="M224.5,281.5c0,0.2-0.2,0.4-0.4,0.4c-0.2,0-0.4-0.2-0.4-0.4c0-0.2,0.2-0.4,0.4-0.4C224.3,281,224.5,281.2,224.5,281.5z"/>
	<path d="M226.2,276.2v2c0.3-0.2,0.6-0.3,1-0.3c1,0,1.7,0.7,1.7,1.9c0,1.2-0.7,2-1.9,2c-0.7,0-1.3-0.3-1.7-0.7l0.3-0.3
		c0.4,0.4,0.8,0.6,1.4,0.6c0.8,0,1.4-0.6,1.4-1.6c0-1-0.5-1.4-1.3-1.4c-0.4,0-0.7,0.1-1,0.3h-0.4v-2.9h3l-0.1,0.4H226.2z"/>
	<path d="M230.8,275.5c0,0.1,0,0.2-0.1,0.4l-0.5,1.1h-0.4l0.3-1.2c-0.1-0.1-0.2-0.2-0.2-0.3c0-0.2,0.2-0.4,0.4-0.4
		C230.7,275.1,230.8,275.3,230.8,275.5z"/>
	<path d="M232.8,275.5c0,0.1,0,0.2-0.1,0.4l-0.5,1.1h-0.4l0.3-1.2c-0.1-0.1-0.2-0.2-0.2-0.3c0-0.2,0.2-0.4,0.4-0.4
		C232.6,275.1,232.8,275.3,232.8,275.5z"/>
	<path d="M241.6,281.8l-0.3-3c-0.1-1-0.2-2.1-0.2-2.7l-1.5,4.9h-0.5l-1.6-4.9c0,0.6-0.1,1.7-0.2,2.7l-0.3,3h-0.5l0.6-6.2h0.7
		l1.5,4.8l1.5-4.8h0.8l0.6,6.2H241.6z"/>
	<path d="M244.5,275.4c0,0.2-0.2,0.4-0.4,0.4c-0.2,0-0.4-0.2-0.4-0.4s0.2-0.4,0.4-0.4C244.3,275,244.5,275.2,244.5,275.4z
		 M243.8,281.8v-4.7h0.5v4.7H243.8z"/>
	<path d="M249.6,278.4v3.4h-0.5v-3.3c0-0.8-0.3-1.1-0.9-1.1c-0.6,0-1.1,0.4-1.5,1v3.4h-0.5v-4.7h0.5l0.1,0.8
		c0.4-0.5,0.9-0.9,1.6-0.9C249.2,277,249.6,277.5,249.6,278.4z"/>
	<path d="M252.1,275.4c0,0.2-0.2,0.4-0.4,0.4c-0.2,0-0.4-0.2-0.4-0.4s0.2-0.4,0.4-0.4C252,275,252.1,275.2,252.1,275.4z
		 M251.5,281.8v-4.7h0.5v4.7H251.5z"/>
	<path d="M259.7,278.4v3.4h-0.5v-3.3c0-0.8-0.3-1.1-0.8-1.1c-0.6,0-1,0.4-1.3,1v3.4h-0.5v-3.3c0-0.8-0.3-1.1-0.8-1.1
		c-0.6,0-1,0.4-1.3,1v3.4h-0.5v-4.7h0.5l0,0.8c0.4-0.5,0.8-0.9,1.4-0.9c0.6,0,1,0.4,1.2,0.9c0.4-0.6,0.9-0.9,1.5-0.9
		C259.3,277,259.7,277.5,259.7,278.4z"/>
	<path d="M264.5,281.8l0-0.8c-0.3,0.6-0.8,0.9-1.5,0.9c-0.8,0-1.3-0.5-1.3-1.4v-3.4h0.5v3.3c0,0.7,0.3,1.1,0.9,1.1
		c0.6,0,1.1-0.4,1.4-1v-3.4h0.5v4.7H264.5z"/>
	<path d="M272.6,278.4v3.4h-0.5v-3.3c0-0.8-0.3-1.1-0.8-1.1c-0.6,0-1,0.4-1.3,1v3.4h-0.5v-3.3c0-0.8-0.3-1.1-0.8-1.1
		c-0.6,0-1,0.4-1.3,1v3.4h-0.5v-4.7h0.5l0,0.8c0.4-0.5,0.8-0.9,1.4-0.9c0.6,0,1,0.4,1.2,0.9c0.4-0.6,0.9-0.9,1.5-0.9
		C272.2,277,272.6,277.5,272.6,278.4z"/>
	<path d="M280.2,276.2l-0.3,0.4c-0.5-0.4-0.9-0.6-1.4-0.6c-0.8,0-1.3,0.4-1.3,1c0,0.6,0.3,0.9,1.4,1.3c1.1,0.3,1.8,0.7,1.8,1.8
		c0,1.1-0.8,1.8-2,1.8c-0.8,0-1.5-0.3-2-0.8l0.3-0.4c0.4,0.4,0.9,0.7,1.6,0.7c0.9,0,1.5-0.5,1.5-1.3c0-0.7-0.4-1.1-1.5-1.4
		c-1.2-0.4-1.8-0.8-1.8-1.7c0-0.9,0.7-1.5,1.8-1.5C279.3,275.5,279.7,275.8,280.2,276.2z"/>
	<path d="M282.5,275.4c0,0.2-0.2,0.4-0.4,0.4c-0.2,0-0.4-0.2-0.4-0.4s0.2-0.4,0.4-0.4C282.3,275,282.5,275.2,282.5,275.4z
		 M281.9,281.8v-4.7h0.5v4.7H281.9z"/>
	<path d="M284.2,281.3h2.6l-0.1,0.5h-3.2v-0.4l2.6-3.9h-2.4v-0.5h3v0.4L284.2,281.3z"/>
	<path d="M291.4,279.6h-3.1c0.1,1.3,0.7,1.8,1.5,1.8c0.5,0,0.9-0.2,1.3-0.5l0.2,0.3c-0.4,0.4-0.9,0.6-1.5,0.6c-1.2,0-2-0.9-2-2.4
		c0-1.5,0.7-2.5,1.9-2.5c1.2,0,1.8,0.9,1.8,2.3C291.4,279.4,291.4,279.6,291.4,279.6z M290.9,279.1c0-1-0.4-1.7-1.3-1.7
		c-0.7,0-1.3,0.5-1.3,1.8h2.6V279.1z"/>
	<path d="M296.1,275.4c0,0.2-0.2,0.4-0.4,0.4c-0.2,0-0.4-0.2-0.4-0.4s0.2-0.4,0.4-0.4C295.9,275,296.1,275.2,296.1,275.4z
		 M295.4,281.8v-4.7h0.5v4.7H295.4z"/>
	<path d="M301.3,278.4v3.4h-0.5v-3.3c0-0.8-0.3-1.1-0.9-1.1c-0.6,0-1.1,0.4-1.5,1v3.4h-0.5v-4.7h0.5l0.1,0.8
		c0.4-0.5,0.9-0.9,1.6-0.9C300.8,277,301.3,277.5,301.3,278.4z"/>
	<path d="M309.4,277.5c0,1.4-1,1.9-2.3,1.9h-0.9v2.4h-0.5v-6.2h1.5C308.6,275.6,309.4,276.2,309.4,277.5z M308.8,277.5
		c0-1-0.6-1.4-1.7-1.4h-0.9v2.9h0.9C308.1,278.9,308.8,278.6,308.8,277.5z"/>
	<path d="M313.1,277l-0.1,0.5c-0.1,0-0.3-0.1-0.4-0.1c-0.7,0-1,0.5-1.3,1.4v2.9h-0.5v-4.7h0.5l0,1.1c0.3-0.8,0.7-1.2,1.3-1.2
		C312.8,277,312.9,277,313.1,277z"/>
	<path d="M314.8,275.4c0,0.2-0.2,0.4-0.4,0.4c-0.2,0-0.4-0.2-0.4-0.4s0.2-0.4,0.4-0.4C314.6,275,314.8,275.2,314.8,275.4z
		 M314.1,281.8v-4.7h0.5v4.7H314.1z"/>
	<path d="M319.9,278.4v3.4h-0.5v-3.3c0-0.8-0.3-1.1-0.9-1.1c-0.6,0-1.1,0.4-1.5,1v3.4h-0.5v-4.7h0.5l0.1,0.8
		c0.4-0.5,0.9-0.9,1.6-0.9C319.5,277,319.9,277.5,319.9,278.4z"/>
	<path d="M323,281.9c-0.7,0-1.2-0.4-1.2-1.2v-3.1H321v-0.4h0.8V276l0.5-0.1v1.2h1.2l-0.1,0.4h-1.2v3.1c0,0.5,0.2,0.8,0.7,0.8
		c0.3,0,0.5-0.1,0.7-0.2l0.2,0.4C323.7,281.8,323.3,281.9,323,281.9z"/>
</g>
<g>
	<path d="M563.1,279.1c0,2-0.7,3.1-1.9,3.1c-1.2,0-1.9-1.1-1.9-3.1s0.6-3.1,1.9-3.1S563.1,277.1,563.1,279.1z M559.9,279.1
		c0,1.8,0.5,2.7,1.3,2.7s1.3-0.8,1.3-2.7c0-1.8-0.5-2.7-1.3-2.7C560.4,276.4,559.9,277.2,559.9,279.1z"/>
	<path d="M565.1,281.7c0,0.2-0.2,0.4-0.4,0.4c-0.2,0-0.4-0.2-0.4-0.4c0-0.2,0.2-0.4,0.4-0.4C564.9,281.3,565.1,281.5,565.1,281.7z"
		/>
	<path d="M566.8,276.5v2c0.3-0.2,0.6-0.3,1-0.3c1,0,1.7,0.7,1.7,1.9c0,1.2-0.7,2-1.9,2c-0.7,0-1.3-0.3-1.7-0.7l0.3-0.3
		c0.4,0.4,0.8,0.6,1.4,0.6c0.8,0,1.4-0.6,1.4-1.6c0-1-0.5-1.4-1.3-1.4c-0.4,0-0.7,0.1-1,0.3h-0.4v-2.9h3l-0.1,0.4H566.8z"/>
	<path d="M571.4,275.8c0,0.1,0,0.2-0.1,0.4l-0.5,1.1h-0.4l0.3-1.2c-0.1-0.1-0.2-0.2-0.2-0.3c0-0.2,0.2-0.4,0.4-0.4
		C571.2,275.4,571.4,275.6,571.4,275.8z"/>
	<path d="M573.4,275.8c0,0.1,0,0.2-0.1,0.4l-0.5,1.1h-0.4l0.3-1.2c-0.1-0.1-0.2-0.2-0.2-0.3c0-0.2,0.2-0.4,0.4-0.4
		C573.2,275.4,573.4,275.6,573.4,275.8z"/>
	<path d="M582.2,282.1l-0.3-3c-0.1-1-0.2-2.1-0.2-2.7l-1.5,4.9h-0.5l-1.6-4.9c0,0.6-0.1,1.7-0.2,2.7l-0.3,3H577l0.6-6.2h0.7l1.5,4.8
		l1.5-4.8h0.8l0.6,6.2H582.2z"/>
	<path d="M585,275.7c0,0.2-0.2,0.4-0.4,0.4c-0.2,0-0.4-0.2-0.4-0.4s0.2-0.4,0.4-0.4C584.9,275.3,585,275.5,585,275.7z M584.4,282.1
		v-4.7h0.5v4.7H584.4z"/>
	<path d="M590.2,278.7v3.4h-0.5v-3.3c0-0.8-0.3-1.1-0.9-1.1c-0.6,0-1.1,0.4-1.5,1v3.4h-0.5v-4.7h0.5l0.1,0.8
		c0.4-0.5,0.9-0.9,1.6-0.9C589.8,277.3,590.2,277.8,590.2,278.7z"/>
	<path d="M592.7,275.7c0,0.2-0.2,0.4-0.4,0.4c-0.2,0-0.4-0.2-0.4-0.4s0.2-0.4,0.4-0.4C592.6,275.3,592.7,275.5,592.7,275.7z
		 M592.1,282.1v-4.7h0.5v4.7H592.1z"/>
	<path d="M600.3,278.7v3.4h-0.5v-3.3c0-0.8-0.3-1.1-0.8-1.1c-0.6,0-1,0.4-1.3,1v3.4h-0.5v-3.3c0-0.8-0.3-1.1-0.8-1.1
		c-0.6,0-1,0.4-1.3,1v3.4h-0.5v-4.7h0.5l0,0.8c0.4-0.5,0.8-0.9,1.4-0.9c0.6,0,1,0.4,1.2,0.9c0.4-0.6,0.9-0.9,1.5-0.9
		C599.8,277.3,600.3,277.8,600.3,278.7z"/>
	<path d="M605,282.1l0-0.8c-0.3,0.6-0.8,0.9-1.5,0.9c-0.8,0-1.3-0.5-1.3-1.4v-3.4h0.5v3.3c0,0.7,0.3,1.1,0.9,1.1
		c0.6,0,1.1-0.4,1.4-1v-3.4h0.5v4.7H605z"/>
	<path d="M613.2,278.7v3.4h-0.5v-3.3c0-0.8-0.3-1.1-0.8-1.1c-0.6,0-1,0.4-1.3,1v3.4H610v-3.3c0-0.8-0.3-1.1-0.8-1.1
		c-0.6,0-1,0.4-1.3,1v3.4h-0.5v-4.7h0.5l0,0.8c0.4-0.5,0.8-0.9,1.4-0.9c0.6,0,1,0.4,1.2,0.9c0.4-0.6,0.9-0.9,1.5-0.9
		C612.7,277.3,613.2,277.8,613.2,278.7z"/>
	<path d="M620.8,276.5l-0.3,0.4c-0.5-0.4-0.9-0.6-1.4-0.6c-0.8,0-1.3,0.4-1.3,1c0,0.6,0.3,0.9,1.4,1.3c1.1,0.3,1.8,0.7,1.8,1.8
		c0,1.1-0.8,1.8-2,1.8c-0.8,0-1.5-0.3-2-0.8l0.3-0.4c0.4,0.4,0.9,0.7,1.6,0.7c0.9,0,1.5-0.5,1.5-1.3c0-0.7-0.4-1.1-1.5-1.4
		c-1.2-0.4-1.8-0.8-1.8-1.7c0-0.9,0.7-1.5,1.8-1.5C619.8,275.8,620.3,276.1,620.8,276.5z"/>
	<path d="M623.1,275.7c0,0.2-0.2,0.4-0.4,0.4c-0.2,0-0.4-0.2-0.4-0.4s0.2-0.4,0.4-0.4C622.9,275.3,623.1,275.5,623.1,275.7z
		 M622.4,282.1v-4.7h0.5v4.7H622.4z"/>
	<path d="M624.8,281.6h2.6l-0.1,0.5h-3.2v-0.4l2.6-3.9h-2.4v-0.5h3v0.4L624.8,281.6z"/>
	<path d="M632,279.9h-3.1c0.1,1.3,0.7,1.8,1.5,1.8c0.5,0,0.9-0.2,1.3-0.5l0.2,0.3c-0.4,0.4-0.9,0.6-1.5,0.6c-1.2,0-2-0.9-2-2.4
		c0-1.5,0.7-2.5,1.9-2.5c1.2,0,1.8,0.9,1.8,2.3C632,279.7,632,279.8,632,279.9z M631.5,279.4c0-1-0.4-1.7-1.3-1.7
		c-0.7,0-1.3,0.5-1.3,1.8h2.6V279.4z"/>
	<path d="M636.7,275.7c0,0.2-0.2,0.4-0.4,0.4c-0.2,0-0.4-0.2-0.4-0.4s0.2-0.4,0.4-0.4C636.5,275.3,636.7,275.5,636.7,275.7z
		 M636,282.1v-4.7h0.5v4.7H636z"/>
	<path d="M641.8,278.7v3.4h-0.5v-3.3c0-0.8-0.3-1.1-0.9-1.1c-0.6,0-1.1,0.4-1.5,1v3.4h-0.5v-4.7h0.5l0.1,0.8
		c0.4-0.5,0.9-0.9,1.6-0.9C641.4,277.3,641.8,277.8,641.8,278.7z"/>
	<path d="M650,277.8c0,1.4-1,1.9-2.3,1.9h-0.9v2.4h-0.5v-6.2h1.5C649.1,275.9,650,276.5,650,277.8z M649.4,277.8
		c0-1-0.6-1.4-1.7-1.4h-0.9v2.9h0.9C648.7,279.2,649.4,278.9,649.4,277.8z"/>
	<path d="M653.6,277.3l-0.1,0.5c-0.1,0-0.3-0.1-0.4-0.1c-0.7,0-1,0.5-1.3,1.4v2.9h-0.5v-4.7h0.5l0,1.1c0.3-0.8,0.7-1.2,1.3-1.2
		C653.3,277.3,653.5,277.3,653.6,277.3z"/>
	<path d="M655.3,275.7c0,0.2-0.2,0.4-0.4,0.4c-0.2,0-0.4-0.2-0.4-0.4s0.2-0.4,0.4-0.4C655.2,275.3,655.3,275.5,655.3,275.7z
		 M654.7,282.1v-4.7h0.5v4.7H654.7z"/>
	<path d="M660.5,278.7v3.4H660v-3.3c0-0.8-0.3-1.1-0.9-1.1c-0.6,0-1.1,0.4-1.5,1v3.4h-0.5v-4.7h0.5l0.1,0.8c0.4-0.5,0.9-0.9,1.6-0.9
		C660.1,277.3,660.5,277.8,660.5,278.7z"/>
	<path d="M663.5,282.2c-0.7,0-1.2-0.4-1.2-1.2v-3.1h-0.8v-0.4h0.8v-1.1l0.5-0.1v1.2h1.2l-0.1,0.4h-1.2v3.1c0,0.5,0.2,0.8,0.7,0.8
		c0.3,0,0.5-0.1,0.7-0.2l0.2,0.4C664.2,282.1,663.9,282.2,663.5,282.2z"/>
</g>
</svg>
