<?xml version="1.0" encoding="UTF-8"?>
<svg width="80px" height="80px" viewBox="0 0 80 80" version="1.1" xmlns="http://www.w3.org/2000/svg" xmlns:xlink="http://www.w3.org/1999/xlink">
    <!-- Generator: Sketch 52.6 (67491) - http://www.bohemiancoding.com/sketch -->
    <title>logo icon</title>
    <desc>Created with Sketch.</desc>
    <defs>
        <linearGradient x1="82.321167%" y1="100%" x2="23.0621338%" y2="0%" id="linearGradient-1">
            <stop stop-color="#182023" offset="0%"></stop>
            <stop stop-color="#0B7559" offset="44.0158487%"></stop>
            <stop stop-color="#00C28A" offset="100%"></stop>
        </linearGradient>
        <filter x="-19.9%" y="-27.8%" width="140.9%" height="157.7%" filterUnits="objectBoundingBox" id="filter-2">
            <feOffset dx="0" dy="2" in="SourceAlpha" result="shadowOffsetOuter1"></feOffset>
            <feGaussianBlur stdDeviation="2" in="shadowOffsetOuter1" result="shadowBlurOuter1"></feGaussianBlur>
            <feColorMatrix values="0 0 0 0 0   0 0 0 0 0   0 0 0 0 0  0 0 0 0.296903306 0" type="matrix" in="shadowBlurOuter1" result="shadowMatrixOuter1"></feColorMatrix>
            <feMerge>
                <feMergeNode in="shadowMatrixOuter1"></feMergeNode>
                <feMergeNode in="SourceGraphic"></feMergeNode>
            </feMerge>
        </filter>
    </defs>
    <g id="Style-Guide" stroke="none" stroke-width="1" fill="none" fill-rule="evenodd">
        <g id="Colors-&amp;-Fonts" transform="translate(-1614.000000, -784.000000)">
            <g id="favicon" transform="translate(1614.000000, 784.000000)">
                <g id="Group">
                    <rect id="Rectangle" fill="url(#linearGradient-1)" x="0" y="0" width="80" height="80" rx="5"></rect>
                    <g id="Group-2" filter="url(#filter-2)" transform="translate(9.843750, 18.437500)" fill="#FFFFFF">
                        <polygon id="Path" points="13.0052997 34.2007244 13.0052997 25.523274 25.7512792 25.523274 25.7512792 16.9152432 13.0052997 16.9152432 13.0052997 8.86256931 26.875 8.86256931 26.875 0 0 0 0 43.125 26.875 43.125 26.875 34.2007244"></polygon>
                        <polygon id="Path" points="60.3125 33.1440038 42.5147337 33.1440038 59.7546249 9.47963245 59.7546249 0 30.15625 0 30.15625 9.66475139 45.001927 9.66475139 30.15625 29.7655831 30.15625 43.125 58.2902027 43.125"></polygon>
                    </g>
                </g>
            </g>
        </g>
    </g>
</svg>