<?xml version="1.0" encoding="utf-8"?><svg id="Layer_1" data-name="Layer 1" xmlns="http://www.w3.org/2000/svg" viewBox="0 0 369.55 93.94"><defs><style>.cls-1{fill:#fff;}.cls-2{fill:#00c28a;}</style></defs><title>logos</title><polygon class="cls-1" points="30.12 57.89 30.12 46.65 46.34 46.65 46.34 35.48 30.12 35.48 30.12 25.04 47.77 25.04 47.77 13.55 13.57 13.55 13.57 69.46 47.77 69.46 47.77 57.89 30.12 57.89"/><polygon class="cls-1" points="91.61 56.53 68.64 56.53 90.89 25.84 90.89 13.55 52.69 13.55 52.69 26.08 71.85 26.08 52.69 52.15 52.69 69.46 89 69.46 91.61 56.53"/><path class="cls-2" d="M96.27,69.46V13.55h35.5L129.08,25H112.82V37.25H128V48.73H112.82V69.46Z"/><path class="cls-2" d="M168,58.9a3.56,3.56,0,0,0,2,1.64l-3.21,10.2a19.63,19.63,0,0,1-7.07-1.64,10.72,10.72,0,0,1-4.5-4.3q-4.17,6.27-12.93,6.26a14,14,0,0,1-10.24-3.81,13.14,13.14,0,0,1-3.89-9.84q0-7.15,5.3-10.92t15.42-3.78h3.05v-1c0-2.14-.43-3.59-1.28-4.34s-2.49-1.13-4.9-1.13a26.45,26.45,0,0,0-4.94.61,52.05,52.05,0,0,0-6.15,1.64l-3.45-10.12A48.53,48.53,0,0,1,148.16,25q10.11,0,14.7,3.89t4.57,11.93V55.56A7.51,7.51,0,0,0,168,58.9Zm-18.12.28a6.52,6.52,0,0,0,2.05-1.85V51h-1.69a8.38,8.38,0,0,0-5,1.21,4.3,4.3,0,0,0-1.6,3.69,4.28,4.28,0,0,0,1,2.94,3.27,3.27,0,0,0,2.57,1.08A5.26,5.26,0,0,0,149.88,59.18Z"/><path class="cls-2" d="M210.49,30.66,203.9,39.9a12,12,0,0,0-7.55-3,6.15,6.15,0,0,0-5.46,2.57c-1.18,1.71-1.77,4.66-1.77,8.83s.6,6.76,1.81,8.24a6.41,6.41,0,0,0,5.26,2.21,9.78,9.78,0,0,0,3.45-.61,23.07,23.07,0,0,0,4-2.13l6.83,9.72a23.29,23.29,0,0,1-15.18,5.3,24.61,24.61,0,0,1-12.13-2.85,19.3,19.3,0,0,1-7.88-8,25,25,0,0,1-2.73-11.85,25.57,25.57,0,0,1,2.78-12A20.46,20.46,0,0,1,183.18,28a22.45,22.45,0,0,1,11.72-3A22.68,22.68,0,0,1,210.49,30.66Z"/><rect class="cls-2" x="213.15" y="26.57" width="15.9" height="42.89"/><path class="cls-2" d="M238.8,67.41q-3.5-3.66-3.5-10.32V9.7l15.91-1.61V56.45c0,1.44.64,2.16,1.93,2.16a4.37,4.37,0,0,0,1.68-.32l4.82,11.33c-2.52,1-7.47,1.44-10.84,1.44Q242.29,71.06,238.8,67.41Z"/><rect class="cls-2" x="261.5" y="26.57" width="15.9" height="42.89"/><path class="cls-2" d="M311.49,67.37a18.79,18.79,0,0,1-6.06,2.73,26.26,26.26,0,0,1-6.79,1q-8-.07-11.77-4.45t-3.81-13V17.57L299,15.72V26.57h9.64L307,37.33h-8V53.47a6.76,6.76,0,0,0,.88,4,2.93,2.93,0,0,0,2.49,1.16,8.16,8.16,0,0,0,4-1.12Z"/><path class="cls-2" d="M342.81,69.38q-2.73,8.91-9.32,13.49t-17.35,4.9l-2.68-10.84c4.12-.43,8.19-1.18,10.19-2.25a10.83,10.83,0,0,0,4.7-5.22h-5.46L310.68,26.57h16.87l5.38,33.17,6.67-33.17H356Z"/><circle class="cls-2" cx="221.1" cy="14.31" r="8.15"/><circle class="cls-2" cx="269.45" cy="14.31" r="8.15"/></svg>
