<?xml version="1.0" encoding="utf-8"?>
<!-- Generator: Adobe Illustrator 23.0.1, SVG Export Plug-In . SVG Version: 6.00 Build 0)  -->
<svg version="1.1" id="Layer_1" xmlns="http://www.w3.org/2000/svg" xmlns:xlink="http://www.w3.org/1999/xlink" x="0px" y="0px"
	 viewBox="0 0 246 59" style="enable-background:new 0 0 246 59;" xml:space="preserve">
<style type="text/css">
	.st0{fill-rule:evenodd;clip-rule:evenodd;fill:#597179;}
	.st1{fill:#597179;}
</style>
<title>logo white</title>
<desc>Created with Sketch.</desc>
<g id="Style-Guide">
	<g transform="translate(-1614.000000, -572.000000)">
		<g id="logo-white" transform="translate(1614.000000, 572.000000)">
			<g id="logos_full-color">
				<polygon id="Path" class="st0" points="12.1,37.7 12.1,29.7 24,29.7 24,21.7 12.1,21.7 12.1,14.2 25,14.2 25,6 0,6 0,46 25,46 
					25,37.7 				"/>
				<polygon class="st0" points="56,36.7 39.5,36.7 55.5,14.8 55.5,6 28,6 28,15 41.8,15 28,33.6 28,46 54.1,46 				"/>
				<polygon class="st0" points="60,46 60,6 85,6 83.1,14.2 71.7,14.2 71.7,23 82.3,23 82.3,31.2 71.7,31.2 71.7,46 				"/>
				<path id="Shape" class="st1" d="M111.6,38.3c0.3,0.6,0.8,1,1.4,1.2l-2.3,7.3c-1.7-0.1-3.5-0.5-5.1-1.2c-1.4-0.7-2.5-1.7-3.2-3.1
					c-2,3-5.1,4.5-9.3,4.5c-2.7,0.1-5.4-0.9-7.3-2.7c-1.9-1.9-2.9-4.4-2.8-7c0-3.4,1.3-6,3.8-7.8s6.2-2.7,11.1-2.7h2.2V26
					c0-1.5-0.3-2.6-0.9-3.1c-0.6-0.5-1.8-0.8-3.5-0.8c-1.2,0-2.4,0.2-3.5,0.4c-1.5,0.3-3,0.7-4.4,1.2l-2.5-7.2
					c3.9-1.5,8-2.4,12.2-2.4c4.8,0,8.3,0.9,10.5,2.8s3.3,4.7,3.3,8.5v10.6C111.1,36.7,111.2,37.5,111.6,38.3z M98.6,38.5
					c0.6-0.3,1.1-0.8,1.5-1.3v-4.6h-1.2c-1.3-0.1-2.5,0.2-3.6,0.9c-0.8,0.6-1.2,1.6-1.1,2.6c0,0.8,0.2,1.5,0.7,2.1
					c0.5,0.5,1.1,0.8,1.8,0.8C97.3,39,98,38.8,98.6,38.5z"/>
				<path class="st0" d="M142,18.1l-4.7,6.6c-1.5-1.3-3.4-2.1-5.4-2.1c-1.5-0.1-3,0.6-3.9,1.8c-0.8,1.2-1.3,3.3-1.3,6.3
					c0,2.9,0.4,4.8,1.3,5.9c0.9,1.1,2.3,1.7,3.7,1.6c0.8,0,1.7-0.1,2.5-0.4c1-0.4,1.9-0.9,2.8-1.5l4.9,7c-3,2.5-6.9,3.9-10.8,3.8
					c-3,0.1-6-0.6-8.6-2c-2.4-1.3-4.3-3.3-5.6-5.7c-1.3-2.6-2-5.5-1.9-8.5c0-3,0.6-5.9,2-8.6c1.3-2.5,3.2-4.6,5.6-6
					c2.5-1.5,5.4-2.2,8.3-2.1C135,13.9,138.9,15.4,142,18.1z"/>
				<rect id="Rectangle" x="144" y="15" class="st0" width="11" height="31"/>
				<path class="st0" d="M162.4,44.4c-1.6-1.7-2.4-4.2-2.4-7.4V3.2L171.1,2v34.6c0,1,0.4,1.6,1.3,1.6c0.4,0,0.8-0.1,1.2-0.2L177,46
					c-1.8,0.7-5.2,1-7.6,1C166.4,47,164.1,46.1,162.4,44.4z"/>
				<rect x="178" y="15" class="st0" width="11" height="31"/>
				<path class="st0" d="M214,44.3c-1.3,0.9-2.7,1.6-4.3,2c-1.6,0.5-3.2,0.7-4.8,0.7c-3.8,0-6.5-1.1-8.3-3.2s-2.7-5.2-2.7-9.4V8.3
					L205.2,7v7.8h6.8l-1.2,7.8h-5.6v11.7c-0.1,1,0.1,2,0.6,2.9c0.4,0.6,1.1,0.9,1.8,0.8c1,0,2-0.3,2.8-0.8L214,44.3z"/>
				<path class="st0" d="M236.4,45.8c-1.3,4.3-3.6,7.5-6.8,9.7s-7.4,3.4-12.6,3.5l-2-7.8c3-0.3,6-0.8,7.4-1.6
					c1.5-0.8,2.7-2.2,3.4-3.8h-4L213,15h12.3l3.9,23.9l4.9-23.9H246L236.4,45.8z"/>
				<circle id="Oval" class="st0" cx="149" cy="6" r="6"/>
				<circle class="st0" cx="184" cy="6" r="6"/>
			</g>
		</g>
	</g>
</g>
</svg>
