<?xml version="1.0" encoding="UTF-8"?>
<svg width="246px" height="59px" viewBox="0 0 246 59" version="1.1" xmlns="http://www.w3.org/2000/svg" xmlns:xlink="http://www.w3.org/1999/xlink">
    <!-- Generator: Sketch 52.6 (67491) - http://www.bohemiancoding.com/sketch -->
    <title>logo white</title>
    <desc>Created with Sketch.</desc>
    <g id="Style-Guide" stroke="none" stroke-width="1" fill="none" fill-rule="evenodd">
        <g id="Colors-&amp;-Fonts" transform="translate(-1614.000000, -572.000000)" fill="#FFFFFF">
            <g id="logo-white" transform="translate(1614.000000, 572.000000)">
                <g id="logos_full-color">
                    <polygon id="Path" points="12.0979532 37.722411 12.0979532 29.6737614 23.9546784 29.6737614 23.9546784 21.689501 12.0979532 21.689501 12.0979532 14.2203541 25 14.2203541 25 6 0 6 0 46 25 46 25 37.722411"></polygon>
                    <polygon id="Path" points="56 36.7422644 39.4748201 36.7422644 55.4820144 14.7927026 55.4820144 6 28 6 28 14.9644071 41.7841727 14.9644071 28 33.6086568 28 46 54.1223022 46"></polygon>
                    <polygon id="Path" points="60 46 60 6 85 6 83.1056338 14.2203541 71.6549296 14.2203541 71.6549296 22.9558219 82.3450704 22.9558219 82.3450704 31.1690216 71.6549296 31.1690216 71.6549296 46"></polygon>
                    <path d="M111.566268,38.2809264 C111.877397,38.8413521 112.389702,39.2632681 113,39.4616965 L110.69886,46.7610024 C108.95009,46.6891211 107.230604,46.2885251 105.630618,45.5802324 C104.272865,44.9006922 103.149508,43.8316227 102.404721,42.5102302 C100.411834,45.4919728 97.3221418,46.9852295 93.1356447,46.9900003 C90.4198169,47.1111529 87.7709346,46.1272978 85.7949375,44.2634948 C83.9209448,42.4081187 82.9098043,39.8548269 83.0063289,37.2218115 C83.0063289,33.8059271 84.2727921,31.1986914 86.8057184,29.4001042 C89.3386448,27.6015171 93.0233357,26.7022235 97.8597913,26.7022235 L100.046232,26.7022235 L100.046232,25.9866053 C100.046232,24.4551823 99.7379801,23.424692 99.128644,22.8879784 C98.519308,22.3512647 97.3436478,22.0793298 95.6160009,22.0793298 C94.4246235,22.1104412 93.2388818,22.2542077 92.0746831,22.5087007 C90.5831786,22.8156221 89.111059,23.2098936 87.6659576,23.6894708 L85.1927701,16.4474143 C89.0636387,14.9120613 93.1792475,14.0831007 97.3436478,14 C102.175324,14 105.687967,14.9279183 107.881577,16.7837549 C110.075187,18.6395915 111.167213,21.4853667 111.157655,25.3210803 L111.157655,35.8979177 C111.108744,36.7130377 111.248563,37.5284513 111.566268,38.2809264 Z M98.5766572,38.4812995 C99.156722,38.1544506 99.6582693,37.7050648 100.046232,37.164562 L100.046232,32.6060739 L98.834729,32.6060739 C97.5782401,32.5084788 96.3231596,32.8116797 95.2503993,33.471972 C94.453855,34.1084475 94.0244042,35.0971445 94.1034137,36.1126032 C94.0704973,36.8765368 94.3263648,37.6249239 94.8202797,38.2093646 C95.2855597,38.7328284 95.9622273,39.0193202 96.6626252,38.9893885 C97.3349488,38.9961285 97.9964907,38.820519 98.5766572,38.4812995 Z" id="Shape" fill-rule="nonzero"></path>
                    <path d="M142,18.0863731 L137.310799,24.7029279 C135.822696,23.3800412 133.922992,22.6204033 131.938497,22.5546958 C130.412841,22.4426195 128.939771,23.1403865 128.053362,24.3950147 C127.213718,25.6218939 126.793895,27.7295483 126.793895,30.7179778 C126.793895,33.5822872 127.223205,35.5467261 128.081825,36.6112945 C129.012497,37.7020765 130.399102,38.2883573 131.824647,38.1938255 C132.661979,38.2005615 133.493632,38.0550085 134.27954,37.764179 C135.275732,37.3509988 136.229082,36.8401197 137.125792,36.2389343 L141.985769,43.1992062 C138.945257,45.7112285 135.117674,47.0560824 131.18424,46.9944163 C128.180826,47.0705127 125.208468,46.3677128 122.552979,44.9535958 C120.161046,43.6455308 118.209384,41.6515782 116.945861,39.2249769 C115.614211,36.60048 114.946949,33.6857516 115.003294,30.7394601 C114.958172,27.7558513 115.637193,24.8062283 116.98144,22.1465317 C118.238103,19.6540639 120.176034,17.5746516 122.56721,16.1529642 C125.099343,14.6824245 127.983926,13.9393656 130.90673,14.0047321 C134.984158,13.9057051 138.947621,15.364016 142,18.0863731 Z" id="Path"></path>
                    <rect id="Rectangle" x="144" y="15" width="11" height="31"></rect>
                    <path d="M162.444536,44.3916151 C160.814845,42.6479276 160,40.1896141 160,37.0166746 L160,3.15054788 L171.112161,2 L171.112161,36.5521677 C171.112161,37.5883754 171.559162,38.1029061 172.460148,38.1029061 C172.862176,38.1064952 173.260937,38.0287804 173.633525,37.8742258 L177,45.9709385 C175.239934,46.6855646 171.782662,47 169.428924,47 C166.397699,47 164.06957,46.1305384 162.444536,44.3916151 Z" id="Path"></path>
                    <rect id="Rectangle" x="178" y="15" width="11" height="31"></rect>
                    <path d="M214,44.3058866 C212.704378,45.2180378 211.260764,45.8857589 209.736898,46.2777176 C208.182314,46.7319906 206.576387,46.9748248 204.960253,47 C201.208348,46.9662935 198.448353,45.8925003 196.680267,43.7786204 C194.912182,41.6647406 194.01876,38.5348501 194,34.3889491 L194,8.33622246 L205.213507,7 L205.213507,14.8295414 L211.995076,14.8295414 L210.841365,22.6085229 L205.213507,22.6085229 L205.213507,34.2661611 C205.123916,35.2717606 205.340201,36.2811442 205.832571,37.1552907 C206.250316,37.7087531 206.902799,38.0208442 207.584242,37.9931383 C208.57448,37.977223 209.543865,37.6985416 210.398171,37.184182 L214,44.3058866 Z" id="Path"></path>
                    <path d="M236.395631,45.7805914 C235.070388,50.0504819 232.808252,53.2828514 229.609223,55.4776997 C226.410194,57.6725481 222.199029,58.8466482 216.975728,59 L215.024272,51.2293743 C218.024272,50.9202745 220.987864,50.3811469 222.444175,49.6119915 C223.974157,48.7695733 225.177805,47.4498644 225.866505,45.8596635 L221.890777,45.8596635 L213,15 L225.283981,15 L229.201456,38.8510047 L234.058252,15 L246,15 L236.395631,45.7805914 Z" id="Path"></path>
                    <circle id="Oval" cx="149" cy="6" r="6"></circle>
                    <circle id="Oval" cx="184" cy="6" r="6"></circle>
                </g>
            </g>
        </g>
    </g>
</svg>