<?xml version="1.0" encoding="utf-8"?><svg id="Layer_1" data-name="Layer 1" xmlns="http://www.w3.org/2000/svg" viewBox="0 0 369.55 93.94"><defs><style>.cls-1{fill:#182023;}.cls-2{fill:#00c28a;}</style></defs><title>logos</title><polygon class="cls-1" points="30.12 56.93 30.12 45.68 46.34 45.68 46.34 34.52 30.12 34.52 30.12 24.08 47.77 24.08 47.77 12.59 13.57 12.59 13.57 68.5 47.77 68.5 47.77 56.93 30.12 56.93"/><polygon class="cls-1" points="91.61 55.56 68.64 55.56 90.89 24.88 90.89 12.59 52.69 12.59 52.69 25.12 71.85 25.12 52.69 51.18 52.69 68.5 89 68.5 91.61 55.56"/><path class="cls-2" d="M96.27,68.5V12.59h35.5l-2.69,11.49H112.82V36.29H128V47.77H112.82V68.5Z"/><path class="cls-2" d="M168,57.93a3.54,3.54,0,0,0,2,1.65l-3.21,10.2a19.41,19.41,0,0,1-7.07-1.65,10.63,10.63,0,0,1-4.5-4.29q-4.17,6.25-12.93,6.26a14,14,0,0,1-10.24-3.81,13.18,13.18,0,0,1-3.89-9.84q0-7.16,5.3-10.93t15.42-3.77h3.05v-1c0-2.14-.43-3.58-1.28-4.33s-2.49-1.13-4.9-1.13a26.31,26.31,0,0,0-4.94.6,54.15,54.15,0,0,0-6.15,1.65l-3.45-10.12A48.53,48.53,0,0,1,148.16,24q10.11,0,14.7,3.89t4.57,11.93V54.6A7.43,7.43,0,0,0,168,57.93Zm-18.12.28a6.38,6.38,0,0,0,2.05-1.84V50h-1.69a8.3,8.3,0,0,0-5,1.21,4.3,4.3,0,0,0-1.6,3.69,4.26,4.26,0,0,0,1,2.93,3.25,3.25,0,0,0,2.57,1.09A5.18,5.18,0,0,0,149.88,58.21Z"/><path class="cls-2" d="M210.49,29.7l-6.59,9.24a12,12,0,0,0-7.55-3,6.15,6.15,0,0,0-5.46,2.57q-1.77,2.57-1.77,8.83,0,6,1.81,8.23a6.38,6.38,0,0,0,5.26,2.21,9.77,9.77,0,0,0,3.45-.6,23.07,23.07,0,0,0,4-2.13l6.83,9.72a23.35,23.35,0,0,1-15.18,5.3,24.61,24.61,0,0,1-12.13-2.85,19.3,19.3,0,0,1-7.88-8,25,25,0,0,1-2.73-11.85,25.61,25.61,0,0,1,2.78-12A20.49,20.49,0,0,1,183.18,27a22.45,22.45,0,0,1,11.72-3A22.68,22.68,0,0,1,210.49,29.7Z"/><rect class="cls-2" x="213.15" y="25.6" width="15.9" height="42.89"/><path class="cls-2" d="M238.8,66.45q-3.5-3.66-3.5-10.32V8.74l15.91-1.61V55.48c0,1.45.64,2.17,1.93,2.17a4.37,4.37,0,0,0,1.68-.32l4.82,11.33c-2.52,1-7.47,1.44-10.84,1.44Q242.29,70.1,238.8,66.45Z"/><rect class="cls-2" x="261.5" y="25.6" width="15.9" height="42.89"/><path class="cls-2" d="M311.49,66.41a18.79,18.79,0,0,1-6.06,2.73,26.26,26.26,0,0,1-6.79,1q-8-.07-11.77-4.46t-3.81-13V16.61L299,14.76V25.6h9.64L307,36.37h-8V52.51a6.76,6.76,0,0,0,.88,4,3,3,0,0,0,2.49,1.16,8.16,8.16,0,0,0,4-1.12Z"/><path class="cls-2" d="M342.81,68.42q-2.73,8.91-9.32,13.49t-17.35,4.9L313.46,76c4.12-.43,8.19-1.18,10.19-2.25a10.87,10.87,0,0,0,4.7-5.22h-5.46L310.68,25.6h16.87l5.38,33.18L339.6,25.6H356Z"/><circle class="cls-2" cx="221.1" cy="13.35" r="8.15"/><circle class="cls-2" cx="269.45" cy="13.35" r="8.15"/></svg>
